<svg width="35" height="14" viewBox="0 0 35 14" fill="none" xmlns="http://www.w3.org/2000/svg">
<path d="M11.136 1.832L7.04 13H4.32L0.224 1.832H2.624L5.696 10.712L8.752 1.832H11.136ZM13.615 3.08C13.2203 3.08 12.8897 2.95733 12.623 2.712C12.367 2.456 12.239 2.14133 12.239 1.768C12.239 1.39467 12.367 1.08533 12.623 0.839999C12.8897 0.583999 13.2203 0.455999 13.615 0.455999C14.0097 0.455999 14.335 0.583999 14.591 0.839999C14.8577 1.08533 14.991 1.39467 14.991 1.768C14.991 2.14133 14.8577 2.456 14.591 2.712C14.335 2.95733 14.0097 3.08 13.615 3.08ZM14.719 4.136V13H12.479V4.136H14.719ZM20.3241 13.144C19.5988 13.144 18.9481 13.016 18.3721 12.76C17.7961 12.4933 17.3375 12.136 16.9961 11.688C16.6655 11.24 16.4841 10.744 16.4521 10.2H18.7081C18.7508 10.5413 18.9161 10.824 19.2041 11.048C19.5028 11.272 19.8708 11.384 20.3081 11.384C20.7348 11.384 21.0655 11.2987 21.3001 11.128C21.5455 10.9573 21.6681 10.7387 21.6681 10.472C21.6681 10.184 21.5188 9.97067 21.2201 9.832C20.9321 9.68267 20.4681 9.52267 19.8281 9.352C19.1668 9.192 18.6228 9.02667 18.1961 8.856C17.7801 8.68533 17.4175 8.424 17.1081 8.072C16.8095 7.72 16.6601 7.24533 16.6601 6.648C16.6601 6.15733 16.7988 5.70933 17.0761 5.304C17.3641 4.89867 17.7695 4.57867 18.2921 4.344C18.8255 4.10933 19.4495 3.992 20.1641 3.992C21.2201 3.992 22.0628 4.25867 22.6921 4.792C23.3215 5.31467 23.6681 6.024 23.7321 6.92H21.5881C21.5561 6.568 21.4068 6.29067 21.1401 6.088C20.8841 5.87467 20.5375 5.768 20.1001 5.768C19.6948 5.768 19.3801 5.84267 19.1561 5.992C18.9428 6.14133 18.8361 6.34933 18.8361 6.616C18.8361 6.91467 18.9855 7.144 19.2841 7.304C19.5828 7.45333 20.0468 7.608 20.6761 7.768C21.3161 7.928 21.8441 8.09333 22.2601 8.264C22.6761 8.43467 23.0335 8.70133 23.3321 9.064C23.6415 9.416 23.8015 9.88533 23.8121 10.472C23.8121 10.984 23.6681 11.4427 23.3801 11.848C23.1028 12.2533 22.6975 12.5733 22.1641 12.808C21.6415 13.032 21.0281 13.144 20.3241 13.144ZM26.7869 3.08C26.3922 3.08 26.0615 2.95733 25.7949 2.712C25.5389 2.456 25.4109 2.14133 25.4109 1.768C25.4109 1.39467 25.5389 1.08533 25.7949 0.839999C26.0615 0.583999 26.3922 0.455999 26.7869 0.455999C27.1815 0.455999 27.5069 0.583999 27.7629 0.839999C28.0295 1.08533 28.1629 1.39467 28.1629 1.768C28.1629 2.14133 28.0295 2.456 27.7629 2.712C27.5069 2.95733 27.1815 3.08 26.7869 3.08ZM27.8909 4.136V13H25.6509V4.136H27.8909ZM32.712 5.976V10.264C32.712 10.5627 32.7813 10.7813 32.92 10.92C33.0693 11.048 33.3147 11.112 33.656 11.112H34.696V13H33.288C31.4 13 30.456 12.0827 30.456 10.248V5.976H29.4V4.136H30.456V1.944H32.712V4.136H34.696V5.976H32.712Z" fill="white" fill-opacity="0.55"/>
</svg>
